<mxfile host="app.diagrams.net" modified="2024-01-23T05:40:35.341Z" agent="Mozilla/5.0 (Macintosh; Intel Mac OS X 10_15_7) AppleWebKit/537.36 (KHTML, like Gecko) Chrome/120.0.0.0 Safari/537.36 Edg/120.0.0.0" version="22.1.21" etag="xZ270Orf2a0Dv0TAwMsk" type="github">
  <diagram name="第 1 页" id="ZL8UQbcyMk0nnCnRy-uX">
    <mxGraphModel>
      <root>
        <mxCell id="0" />
        <mxCell id="1" parent="0" />
      </root>
    </mxGraphModel>
  </diagram>
</mxfile>
